<svg width="16" height="16" viewBox="0 0 16 16" fill="none" xmlns="http://www.w3.org/2000/svg">
<path d="M13.3335 6C13.0874 6 12.8566 6.06706 12.6584 6.18391C12.5838 5.51856 12.0181 5 11.3335 5C11.008 5 10.7088 5.11784 10.4764 5.31413C10.243 4.92644 9.81818 4.66666 9.3335 4.66666C9.091 4.66666 8.86312 4.73175 8.66684 4.84569V1.33334C8.66681 0.597969 8.06884 0 7.3335 0C6.59815 0 6.00015 0.597969 6.00015 1.33334V10.2546C6.00015 10.4225 5.88946 10.5088 5.84193 10.5381C5.7944 10.5674 5.66646 10.6276 5.51771 10.5527L3.37709 9.48244C3.18209 9.38478 2.96368 9.33334 2.74559 9.33334C1.96693 9.33334 1.3335 9.96681 1.3335 10.7455V11C1.3335 11.0924 1.3719 11.1807 1.43928 11.2438L5.28662 14.8346C6.09193 15.5859 7.14209 16 8.24331 16H10.3335C12.7228 16 14.6668 14.056 14.6668 11.6667V7.33334C14.6668 6.59797 14.0688 6 13.3335 6ZM14.0002 11.6667C14.0002 13.6885 12.3553 15.3333 10.3335 15.3333H8.24334C7.31168 15.3333 6.42303 14.9831 5.74171 14.347L2.00015 10.8552V10.7455C2.00015 10.3343 2.33446 10 2.74559 10C2.8605 10 2.97606 10.0273 3.07893 10.0788L5.21956 11.1491C5.53175 11.3057 5.89565 11.2884 6.19253 11.1055C6.4894 10.9219 6.66681 10.6038 6.66681 10.2546V1.33334C6.66681 0.965844 6.96596 0.666687 7.33346 0.666687C7.70096 0.666687 8.00012 0.965844 8.00012 1.33334V6.33334C8.00012 6.51759 8.14921 6.66669 8.33346 6.66669C8.51771 6.66669 8.66681 6.51759 8.66681 6.33334V6C8.66681 5.6325 8.96596 5.33334 9.33346 5.33334C9.70096 5.33334 10.0001 5.6325 10.0001 6V6.33334C10.0001 6.334 10.0001 6.33466 10.0001 6.33531C10.0014 6.51825 10.1502 6.66669 10.3335 6.66669C10.5177 6.66669 10.6668 6.51759 10.6668 6.33334V6.32812C10.6694 5.96322 10.9682 5.66666 11.3335 5.66666C11.701 5.66666 12.0001 5.96581 12.0001 6.33331V7.33331C12.0001 7.51756 12.1492 7.66666 12.3335 7.66666C12.5177 7.66666 12.6668 7.51756 12.6668 7.33331C12.6668 6.96581 12.966 6.66666 13.3335 6.66666C13.701 6.66666 14.0002 6.96581 14.0002 7.33334V11.6667Z" fill="black"/>
</svg>
